<svg id="Layer_1" enable-background="new 0 0 512.002 512.002" height="512" viewBox="0 0 512.002 512.002" width="512" xmlns="http://www.w3.org/2000/svg"><g><path d="m456.002 0h-320c-5.523 0-10 4.477-10 10v42.001h-70.002c-5.523 0-10 4.477-10 10v360c0 2.652 1.054 5.196 2.929 7.071l80 80c1.875 1.875 4.419 2.929 7.071 2.929h240c5.523 0 10-4.477 10-10v-42.001h70.002c5.523 0 10-4.477 10-10v-440c0-5.523-4.477-10-10-10zm-330.002 477.86-45.858-45.858h45.858zm240 14.142h-220v-70c0-5.523-4.477-10-10-10h-70v-340h300zm80.002-52.002h-60.002v-377.998c0-5.523-4.477-10-10-10h-229.998v-32.002h300z"/><path d="m116 252.004c2.576 0 5.152-.99 7.107-2.965l64.466-65.127 33.502 33.846c1.878 1.898 4.437 2.965 7.107 2.965s5.229-1.067 7.107-2.965l70.711-71.436v8.055c0 5.523 4.477 10 10 10s10-4.477 10-10v-32.373c0-5.523-4.477-10-10-10h-32.374c-5.523 0-10 4.477-10 10s4.477 10 10 10h8.405l-63.848 64.503-33.502-33.846c-1.878-1.897-4.437-2.965-7.107-2.965s-5.229 1.067-7.107 2.965l-71.573 72.307c-3.885 3.925-3.853 10.257.072 14.142 1.949 1.931 4.492 2.894 7.034 2.894z"/><path d="m116 312.006h200c5.523 0 10-4.477 10-10s-4.477-10-10-10h-200c-5.523 0-10 4.477-10 10s4.477 10 10 10z"/><path d="m116 352.007h200c5.523 0 10-4.477 10-10s-4.477-10-10-10h-200c-5.523 0-10 4.477-10 10s4.477 10 10 10z"/><path d="m116 392.009h200c5.523 0 10-4.477 10-10s-4.477-10-10-10h-200c-5.523 0-10 4.477-10 10s4.477 10 10 10z"/><path d="m316 412.002h-100c-5.523 0-10 4.477-10 10s4.477 10 10 10h100c5.523 0 10-4.477 10-10s-4.477-10-10-10z"/></g></svg>