<svg height="491pt" viewBox="-5 0 491 491.2" width="491pt" xmlns="http://www.w3.org/2000/svg"><path d="m24.101562 485.601562h248c22.398438 0 40-17.601562 40-40v-144c0-13.601562-10.402343-24-24-24h-120v-8c0-13.601562-10.402343-24-24-24h-88c-13.601562 0-24 10.398438-24 24v24h16v-24c0-4.800781 3.199219-8 8-8h88c4.796876 0 8 3.199219 8 8v24h136c4.796876 0 8 3.199219 8 8v144c0 13.597657-10.402343 24-24 24-13.601562 0-24-10.402343-24-24v-112c0-13.601562-10.402343-24-24-24h-200c-13.601562 0-24 10.398438-24 24v128c0 13.597657 10.398438 24 24 24zm-8-152c0-4.800781 3.199219-8 8-8h200c4.796876 0 8 3.199219 8 8v112c0 8.796876 3.199219 16.796876 8 24h-216c-4.800781 0-8-3.203124-8-8zm0 0"/><path d="m264.101562 309.601562h16v144h-16zm0 0"/><path d="m93.699219 59.199219 29.601562-29.597657-29.601562-29.601562-11.199219 11.199219 10.398438 10.402343h-20.796876c-22.402343 0-40 17.597657-40 40v128h16v-128c0-13.601562 10.398438-24 24-24h20.796876l-10.398438 10.398438zm0 0"/><path d="m386.5 432-29.601562 29.601562 29.601562 29.597657 11.199219-11.199219-10.398438-10.398438h20.800781c22.398438 0 40-17.601562 40-40v-64h-16v64c0 13.597657-10.402343 24-24 24h-20.800781l10.398438-10.402343zm0 0"/><path d="m336.101562 189.601562v-17.601562c12.796876-4.800781 19.199219-18.398438 14.398438-30.398438s-18.398438-19.203124-30.398438-14.402343c-12.800781 4.800781-19.203124 18.402343-14.402343 30.402343 2.402343 7.199219 8 12 14.402343 14.398438v17.601562zm-8-48c4.796876 0 8 3.199219 8 8 0 4.796876-3.203124 8-8 8-4.800781 0-8-3.203124-8-8 0-4.800781 3.199219-8 8-8zm0 0"/><path d="m280.101562 5.601562c-32.800781 0-65.601562 8-95.203124 24h-.796876v.796876c-64 35.203124-104 102.402343-104 175.203124 0 8 .796876 16.796876 1.597657 24.796876l16-1.597657c-.800781-8-1.597657-15.199219-1.597657-23.199219 0-13.601562 1.597657-27.203124 4.796876-40h29.601562c1.601562 0 4 .796876 5.601562 1.597657l40 34.402343c9.597657 8 24 7.199219 32.796876-1.601562l10.402343-10.398438c9.597657-9.601562 9.597657-24.800781 0-33.601562l-19.199219-17.601562v-98.398438c20-9.601562 41.597657-16 64-17.601562v21.601562c0 3.199219-1.601562 5.601562-4.800781 7.199219l-14.402343 7.199219c-8 4-13.597657 12-13.597657 21.601562v5.601562c0 13.597657 10.398438 24 24 24h41.597657c6.402343 0 12.800781-2.402343 16.800781-7.203124l14.402343-14.398438c1.597657-1.601562 3.199219-2.398438 5.597657-2.398438h84.800781c6.398438 7.199219 12 15.199219 17.601562 24h-20c-13.601562 0-24 10.398438-24 24v16c0 4.796876-3.203124 8-8 8h-16v16h16c13.597657 0 24-10.402343 24-24v-16c0-4.800781 3.199219-8 8-8h29.597657c12 24.796876 18.402343 52 18.402343 80 0 3.199219 0 7.199219-.800781 10.398438l-33.601562 36c-.800781.800781-1.597657 1.601562-3.199219 1.601562h-79.199219c-2.402343 0-4-1.601562-4-4 0-11.203124-8.800781-20-20-20h-71.199219c-2.402343 0-4-1.601562-4-4 0-.800781.796876-2.402343.796876-3.203124l43.203124-43.199219-11.203124-11.199219-43.199219 43.199219c-8 8-8 20.800781 0 28 4 4 8.800781 5.601562 14.402343 5.601562h71.199219c2.398438 0 4 1.597657 4 4 0 11.199219 8.800781 20 20 20h79.199219c5.601562 0 11.199219-2.402343 14.398438-6.402343l18.402343-20c-4 20.800781-12 40-23.199219 58.402343h-43.203124c-4 0-7.199219-1.601562-10.398438-4l-2.398438-2.402343c-12-12-31.203124-12-43.203124 0-5.597657 5.601562-8.796876 13.601562-8.796876 21.601562v10.398438c0 16.800781 13.597657 30.402343 30.398438 30.402343 4 0 7.199219 1.597657 10.398438 4l3.203124 3.199219c-14.402343 8-29.601562 14.398438-45.601562 19.199219l4 15.199219c107.199219-28 171.199219-136.796876 144-244-23.199219-87.199219-103.199219-148.796876-194.398438-148.796876zm105.597657 350.398438-5.597657-5.601562c-5.601562-5.597657-13.601562-8.796876-21.601562-8.796876s-14.398438-6.402343-14.398438-14.402343v-10.398438c0-8 6.398438-14.402343 14.398438-14.402343 4 0 7.199219 1.601562 10.398438 4l2.402343 2.402343c5.597657 5.597657 13.597657 8.800781 21.597657 8.800781h32.800781c-11.199219 14.398438-24.800781 28-40 38.398438zm-178.398438-188c3.199219 3.199219 3.199219 8 0 11.199219l-10.402343 10.402343c-3.199219 3.199219-8 3.199219-11.199219.796876l-40-34.398438c-4-4-9.597657-5.601562-16-5.601562h-25.597657c13.597657-42.398438 41.597657-77.597657 79.199219-100.796876v96zm110.398438-91.199219-14.398438 14.398438c-1.601562 1.601562-3.199219 2.402343-5.601562 2.402343h-41.597657c-4.800781 0-8-3.203124-8-8v-6.402343c0-3.199219 1.597657-5.597657 4.796876-7.199219l14.402343-7.199219c8-4 13.597657-12 13.597657-21.601562v-21.597657c45.601562 0 89.601562 16.796876 124 48h-68.796876c-8 0-13.601562 2.398438-18.402343 7.199219zm0 0"/><path d="m192.101562 245.601562h16v16h-16zm0 0"/><path d="m120.101562 197.601562h16v16h-16zm0 0"/><path d="m152.101562 213.601562h16v16h-16zm0 0"/></svg>