<svg height="512" viewBox="0 0 64 64" width="512" xmlns="http://www.w3.org/2000/svg"><g id="Transfer"><path d="m50 52a1 1 0 0 0 -1 1v1h-34v-14a1 1 0 0 0 -2 0v15a7.008 7.008 0 0 0 7 7h24a7.008 7.008 0 0 0 7-7v-2a1 1 0 0 0 -1-1zm-6 8h-24a5.009 5.009 0 0 1 -4.9-4h33.8a5.009 5.009 0 0 1 -4.9 4z"/><path d="m14 25a1 1 0 0 0 1-1v-14h34v1a1 1 0 0 0 2 0v-2a7.008 7.008 0 0 0 -7-7h-24a7.008 7.008 0 0 0 -7 7v15a1 1 0 0 0 1 1zm6-21h24a5.009 5.009 0 0 1 4.9 4h-33.8a5.009 5.009 0 0 1 4.9-4z"/><path d="m51 41v-3a1 1 0 0 0 -2 0v3a1 1 0 0 0 2 0z"/><path d="m49 23v3a1 1 0 0 0 2 0v-3a1 1 0 0 0 -2 0z"/><path d="m29 5h2v2h-2z"/><path d="m33 5h2v2h-2z"/><path d="m21 32a11 11 0 1 0 11-11 11.013 11.013 0 0 0 -11 11zm20 0a9 9 0 1 1 -9-9 9.011 9.011 0 0 1 9 9z"/><path d="m31 25-.006 2a2 2 0 0 0 -1.994 2v2a2 2 0 0 0 2 2h2v2h-2v-1h-2v1a2 2 0 0 0 1.994 2l.006 2h2l-.006-2h.006a2 2 0 0 0 2-2v-2a2 2 0 0 0 -2-2h-2v-2h2v1h2v-1a2 2 0 0 0 -2-2h-.006l.006-2z"/><path d="m19 32a1 1 0 0 0 -.36-.768l-6-5a1 1 0 0 0 -1.64.768v1h-8a1 1 0 0 0 -1 1v6a1 1 0 0 0 1 1h8v1a1 1 0 0 0 1.64.768l6-5a1 1 0 0 0 .36-.768zm-6.008 2.872a1 1 0 0 0 -.992-.872h-8v-4h8a1 1 0 0 0 .992-.872l3.446 2.872z"/><path d="m55.64 26.232a1 1 0 0 0 -1.64.768v1h-8a1 1 0 0 0 -1 1v6a1 1 0 0 0 1 1h8v1a1 1 0 0 0 1.64.768l6-5a1 1 0 0 0 0-1.536zm.352 8.64a1 1 0 0 0 -.992-.872h-8v-4h8a1 1 0 0 0 .992-.872l3.446 2.872z"/><path d="m45 14v6a1 1 0 0 0 1 1h8v1a1 1 0 0 0 1.64.768l6-5a1 1 0 0 0 0-1.536l-6-5a1 1 0 0 0 -1.64.768v1h-8a1 1 0 0 0 -1 1zm2 1h8a1 1 0 0 0 .992-.872l3.446 2.872-3.446 2.872a1 1 0 0 0 -.992-.872h-8z"/><path d="m55.64 41.232a1 1 0 0 0 -1.64.768v1h-8a1 1 0 0 0 -1 1v6a1 1 0 0 0 1 1h8v1a1 1 0 0 0 1.64.768l6-5a1 1 0 0 0 0-1.536zm.352 8.64a1 1 0 0 0 -.992-.872h-8v-4h8a1 1 0 0 0 .992-.872l3.446 2.872z"/><path d="m29 57h6v2h-6z"/></g></svg>